<svg width="200" height="200" viewBox="0 0 200 200" fill="none" xmlns="http://www.w3.org/2000/svg">
<path d="M100 0C44.774 0 0 44.774 0 100C0 155.226 44.774 200 100 200C155.226 200 200 155.226 200 100C200 44.774 155.226 0 100 0ZM116.976 140.716C117.72 141.424 118.316 142.273 118.727 143.213C119.138 144.154 119.356 145.168 119.369 146.195C119.383 147.221 119.19 148.24 118.803 149.191C118.416 150.142 117.843 151.006 117.117 151.732C116.391 152.458 115.527 153.032 114.576 153.419C113.625 153.805 112.606 153.998 111.579 153.985C110.553 153.972 109.539 153.753 108.598 153.342C107.657 152.931 106.808 152.336 106.101 151.591L59.9471 105.437C58.5056 103.995 57.6959 102.039 57.6959 100C57.6959 97.9607 58.5056 96.0049 59.9471 94.5625L106.101 48.4087C107.555 47.027 109.492 46.2681 111.498 46.2937C113.504 46.3194 115.42 47.1277 116.838 48.5461C118.257 49.9646 119.065 51.8811 119.091 53.8869C119.117 55.8928 118.358 57.8293 116.976 59.2837L76.2644 100L116.976 140.716Z" fill="white"/>
</svg>
