<svg width="191" height="201" viewBox="0 0 191 201" fill="none" xmlns="http://www.w3.org/2000/svg">
<path d="M20.3334 200.667C14.8334 200.667 10.1267 198.71 6.21337 194.797C2.29337 190.877 0.333374 186.167 0.333374 180.667V20.6667C0.333374 15.1667 2.29337 10.4567 6.21337 6.53669C10.1267 2.62335 14.8334 0.666687 20.3334 0.666687H100.333L160.333 60.6667V91.6667L80.3334 171.417V200.667H20.3334ZM100.333 200.667V179.417L151.833 127.667L173.333 148.667L121.583 200.667H100.333ZM180.583 141.667L159.333 120.417L166.333 113.417C168.333 111.417 170.75 110.417 173.583 110.417C176.417 110.417 178.75 111.417 180.583 113.417L187.583 120.667C189.417 122.667 190.333 125.04 190.333 127.787C190.333 130.54 189.417 132.833 187.583 134.667L180.583 141.667ZM90.3334 70.6667H140.333L90.3334 20.6667V70.6667Z" fill="white"/>
</svg>
