<svg width="193" height="201" viewBox="0 0 193 201" fill="none" xmlns="http://www.w3.org/2000/svg">
<path d="M20.3333 200.667C14.8333 200.667 10.1266 198.71 6.21325 194.797C2.29325 190.877 0.333252 186.167 0.333252 180.667V20.6667C0.333252 15.1667 2.29325 10.4567 6.21325 6.53669C10.1266 2.62335 14.8333 0.666687 20.3333 0.666687H100.333L160.333 60.6667V100.667H140.333V70.6667H90.3333V20.6667H20.3333V180.667H80.3333V200.667H20.3333ZM20.3333 180.667V20.6667V180.667ZM143.333 125.917L154.083 136.667L115.333 175.167V185.667H125.833L164.583 147.167L175.083 157.667L132.083 200.667H100.333V168.917L143.333 125.917ZM175.083 157.667L143.333 125.917L157.833 111.417C159.667 109.583 162 108.667 164.833 108.667C167.667 108.667 170 109.583 171.833 111.417L189.583 129.167C191.417 131 192.333 133.333 192.333 136.167C192.333 139 191.417 141.333 189.583 143.167L175.083 157.667Z" fill="white"/>
</svg>
