<svg width="200" height="200" viewBox="0 0 200 200" fill="none" xmlns="http://www.w3.org/2000/svg">
<path fill-rule="evenodd" clip-rule="evenodd" d="M0 100C0 73.4783 10.5357 48.043 29.2893 29.2893C48.043 10.5357 73.4783 0 100 0C126.522 0 151.957 10.5357 170.711 29.2893C189.464 48.043 200 73.4783 200 100C200 126.522 189.464 151.957 170.711 170.711C151.957 189.464 126.522 200 100 200C73.4783 200 48.043 189.464 29.2893 170.711C10.5357 151.957 0 126.522 0 100H0ZM93.3333 53.3333C87.038 53.3325 80.8314 54.8176 75.2183 57.6678C69.6051 60.518 64.744 64.6528 61.0302 69.736C57.3164 74.8191 54.8547 80.7071 53.8456 86.921C52.8364 93.1349 53.3081 99.4992 55.2223 105.496C57.1366 111.494 60.4393 116.954 64.862 121.434C69.2846 125.915 74.7022 129.288 80.6742 131.279C86.6462 133.271 93.0039 133.824 99.2303 132.895C105.457 131.967 111.376 129.581 116.507 125.933L135.293 144.72L144.72 135.293L125.933 116.507C130.186 110.523 132.711 103.484 133.23 96.1612C133.749 88.8384 132.242 81.5139 128.876 74.9901C125.509 68.4663 120.412 62.9948 114.143 59.1749C107.874 55.355 100.675 53.334 93.3333 53.3333Z" fill="white"/>
<circle cx="94" cy="93" r="27" fill="white"/>
</svg>
