<svg width="200" height="200" viewBox="0 0 200 200" fill="none" xmlns="http://www.w3.org/2000/svg">
<circle cx="100" cy="100" r="93.5" stroke="white" stroke-width="13"/>
<path d="M113.333 113.333L140 140M93.3333 126.667C84.4928 126.667 76.0143 123.155 69.7631 116.904C63.5119 110.652 60 102.174 60 93.3333C60 84.4928 63.5119 76.0143 69.7631 69.7631C76.0143 63.5119 84.4928 60 93.3333 60C102.174 60 110.652 63.5119 116.904 69.7631C123.155 76.0143 126.667 84.4928 126.667 93.3333C126.667 102.174 123.155 110.652 116.904 116.904C110.652 123.155 102.174 126.667 93.3333 126.667V126.667Z" stroke="white" stroke-width="13.3333"/>
</svg>
