<svg width="179" height="200" viewBox="0 0 179 200" fill="none" xmlns="http://www.w3.org/2000/svg">
<path d="M33.6666 200C27.5555 200 22.3258 197.826 17.9777 193.478C13.6221 189.122 11.4444 183.889 11.4444 177.778V33.3333C8.29621 33.3333 5.65548 32.2704 3.52214 30.1444C1.39622 28.0111 0.333252 25.3704 0.333252 22.2222C0.333252 19.0741 1.39622 16.4333 3.52214 14.3C5.65548 12.1741 8.29621 11.1111 11.4444 11.1111H55.8888C55.8888 7.96296 56.9555 5.32222 59.0888 3.18889C61.2147 1.06296 63.8518 0 66.9999 0H111.444C114.593 0 117.233 1.06296 119.367 3.18889C121.493 5.32222 122.555 7.96296 122.555 11.1111H167C170.148 11.1111 172.785 12.1741 174.911 14.3C177.044 16.4333 178.111 19.0741 178.111 22.2222C178.111 25.3704 177.044 28.0111 174.911 30.1444C172.785 32.2704 170.148 33.3333 167 33.3333V177.778C167 183.889 164.826 189.122 160.478 193.478C156.122 197.826 150.889 200 144.778 200H33.6666ZM55.8888 144.444C55.8888 147.593 56.9555 150.23 59.0888 152.356C61.2147 154.489 63.8518 155.556 66.9999 155.556C70.1481 155.556 72.7888 154.489 74.9221 152.356C77.0481 150.23 78.111 147.593 78.111 144.444V66.6667C78.111 63.5185 77.0481 60.8778 74.9221 58.7444C72.7888 56.6185 70.1481 55.5556 66.9999 55.5556C63.8518 55.5556 61.2147 56.6185 59.0888 58.7444C56.9555 60.8778 55.8888 63.5185 55.8888 66.6667V144.444ZM100.333 144.444C100.333 147.593 101.4 150.23 103.533 152.356C105.659 154.489 108.296 155.556 111.444 155.556C114.593 155.556 117.233 154.489 119.367 152.356C121.493 150.23 122.555 147.593 122.555 144.444V66.6667C122.555 63.5185 121.493 60.8778 119.367 58.7444C117.233 56.6185 114.593 55.5556 111.444 55.5556C108.296 55.5556 105.659 56.6185 103.533 58.7444C101.4 60.8778 100.333 63.5185 100.333 66.6667V144.444Z" fill="white"/>
</svg>
