<svg width="179" height="200" viewBox="0 0 179 200" fill="none" xmlns="http://www.w3.org/2000/svg">
<path d="M33.6666 200C27.5555 200 22.3258 197.826 17.9777 193.478C13.6221 189.122 11.4444 183.889 11.4444 177.778V33.3333H0.333252V11.1111H55.8888V0H122.555V11.1111H178.111V33.3333H167V177.778C167 183.889 164.826 189.122 160.478 193.478C156.122 197.826 150.889 200 144.778 200H33.6666ZM144.778 33.3333H33.6666V177.778H144.778V33.3333ZM55.8888 155.556H78.111V55.5556H55.8888V155.556ZM100.333 155.556H122.555V55.5556H100.333V155.556ZM33.6666 33.3333V177.778V33.3333Z" fill="white"/>
</svg>
