<svg width="210" height="201" viewBox="0 0 210 201" fill="none" xmlns="http://www.w3.org/2000/svg">
<path d="M208.831 196.916C208.148 198.142 207.146 199.16 205.932 199.863C204.718 200.567 203.337 200.93 201.934 200.914H8.01706C6.61404 200.93 5.23275 200.567 4.01886 199.863C2.80498 199.16 1.80348 198.142 1.12001 196.916C0.387436 195.711 0 194.328 0 192.918C0 191.508 0.387436 190.125 1.12001 188.92C16.041 163.216 39.9244 143.924 68.1913 134.743C54.6423 126.686 44.1133 114.403 38.2218 99.7821C32.3303 85.1609 31.4022 69.0098 35.58 53.8099C39.7579 38.6101 48.8107 25.2023 61.3476 15.6464C73.8845 6.09045 89.212 0.914948 104.976 0.914948C120.739 0.914948 136.067 6.09045 148.604 15.6464C161.141 25.2023 170.193 38.6101 174.371 53.8099C178.549 69.0098 177.621 85.1609 171.729 99.7821C165.838 114.403 155.309 126.686 141.76 134.743C170.027 143.924 193.91 163.216 208.831 188.92C209.564 190.125 209.951 191.508 209.951 192.918C209.951 194.328 209.564 195.711 208.831 196.916Z" fill="white"/>
</svg>
