<svg width="210" height="200" viewBox="0 0 210 200" fill="none" xmlns="http://www.w3.org/2000/svg">
<path d="M208.09 182.686C194.605 159.434 173.669 141.411 148.669 131.534C160.939 122.332 170.002 109.502 174.575 94.863C179.148 80.2236 178.999 64.5164 174.149 49.9664C169.299 35.4163 159.994 22.7611 147.552 13.7934C135.11 4.82565 120.162 0 104.825 0C89.4875 0 74.5392 4.82565 62.0971 13.7934C49.655 22.7611 40.3499 35.4163 35.4999 49.9664C30.6499 64.5164 30.5009 80.2236 35.0739 94.863C39.6469 109.502 48.7101 122.332 60.9798 131.534C35.9803 141.411 15.0443 159.434 1.55864 182.686C0.0285983 185.339 -0.385247 188.49 0.40815 191.447C1.20155 194.404 3.1372 196.925 5.78928 198.455C8.44136 199.985 11.5926 200.399 14.5498 199.606C17.507 198.812 20.028 196.877 21.558 194.225C29.9973 179.609 42.135 167.472 56.7513 159.034C71.3675 150.596 87.9474 146.153 104.825 146.153C121.702 146.153 138.282 150.596 152.898 159.034C167.514 167.472 179.652 179.609 188.091 194.225C189.112 195.973 190.571 197.425 192.325 198.437C194.079 199.449 196.066 199.985 198.091 199.994C200.117 200.01 202.11 199.478 203.86 198.455C205.174 197.698 206.325 196.69 207.249 195.487C208.173 194.285 208.851 192.912 209.244 191.448C209.636 189.983 209.737 188.456 209.539 186.952C209.341 185.449 208.849 183.999 208.09 182.686ZM54.8262 73.0746C54.8262 63.1858 57.7585 53.5191 63.2524 45.297C68.7463 37.0748 76.555 30.6663 85.691 26.8821C94.827 23.0978 104.88 22.1077 114.579 24.0369C124.277 25.9661 133.186 30.728 140.179 37.7204C147.171 44.7128 151.933 53.6216 153.862 63.3204C155.791 73.0191 154.801 83.0721 151.017 92.2081C147.233 101.344 140.824 109.153 132.602 114.647C124.38 120.141 114.713 123.073 104.825 123.073C91.5642 123.073 78.8469 117.805 69.4704 108.429C60.0938 99.0522 54.8262 86.335 54.8262 73.0746Z" fill="white"/>
</svg>
